<?xml version="1.0" encoding="UTF-8"?>
<svg xmlns="http://www.w3.org/2000/svg" viewBox="0 0 531 203"><g fill="none"><path d="M206.06 122h11.24l11.48-25.7h52.76l11.35 25.7h11.8L260.5 24.33h-10.25L206.06 122Zm27-35.47L255.24 37l22 49.45-44.18.08ZM330.71 122h10.92V84.3h27.73l28.1 37.7h13.43l-29.77-39.65c15.22-2.75 26.3-12.19 26.3-28.25v-.28A26.74 26.74 0 0 0 400 34.73c-6.17-6.14-15.69-9.73-27.61-9.73h-41.68v97Zm10.92-47.5V35.09h29.92c15.66 0 24.79 7.21 24.79 19.17v.28c0 12.46-10.34 19.92-24.94 19.92l-29.77.04Zm96.11 47.5h10.68V43.58l35.31 51.76h.56l35.3-51.92V122h11V25h-11.12l-35.34 52.93L448.82 25h-11.08v97ZM207 140h6.57v37.34H207zm21.89 0H235l20 25.81V140h6.45v37.34h-5.49l-20.59-26.57v26.57h-6.45zm44.95 31.88 4-4.7c3.57 3.09 7.14 4.86 11.78 4.86 4.06 0 6.62-1.87 6.62-4.7v-.11c0-2.66-1.49-4.1-8.43-5.7-7.95-1.92-12.43-4.27-12.43-11.15v-.11c0-6.4 5.34-10.82 12.75-10.82a20.71 20.71 0 0 1 13.55 4.69l-3.52 5c-3.36-2.51-6.72-3.84-10.13-3.84-3.85 0-6.09 2-6.09 4.43v.1c0 2.88 1.71 4.16 8.86 5.87 7.89 1.92 12 4.75 12 10.93v.11c0 7-5.5 11.15-13.34 11.15a23.002 23.002 0 0 1-15.62-6.01Zm50.34-25.82h-11.84V140h30.3v6.08H330.8v31.26h-6.62zm31.09-6.06h6.56v37.34h-6.56zm31.04 6.06h-11.85V140h30.3v6.08h-11.84v31.26h-6.61zm30.12 15.41V140H423v21.23c0 6.93 3.57 10.67 9.44 10.67 5.87 0 9.39-3.53 9.39-10.41V140h6.56v21.17c0 11.15-6.29 16.75-16.06 16.75s-15.9-5.62-15.9-16.45Zm55.46-15.41h-11.84V140h30.3v6.08H478.5v31.26h-6.61zM502.6 140h27.68v5.87h-21.12v9.7h18.73v5.87h-18.73v10h21.39v5.87H502.6z" fill="#ffffff"/><path d="m178.57 98.9-32.08 86c-5.77 15.54-21.23 16.81-23.9 17l-6.26.36 2.47-18.37 4.67-.2 6-84.52s1.4-18.92-17.61-18.92H68.23c-19 0-17.69 18.92-17.69 18.92l6 84.52 4.66.2 2.47 18.37-6.25-.36v-.08c-2.75-.12-18.1-1.43-23.88-16.93L1.45 98.9s-6.34-17.05 7.49-28.85l42.52-35.9 5-16.86S62.06 0 80.19 0h19.64c18.17 0 23.79 17.29 23.79 17.29l5.46 16.86 42 35.9c13.83 11.8 7.45 28.85 7.45 28.85m-61.64-54.71a26.93 26.93 0 1 0-25.22 28.53 26.89 26.89 0 0 0 25.22-28.53" fill="#FCB61A"/></g></svg>
